<?xml version="1.0" standalone="no"?>
<!DOCTYPE svg PUBLIC "-//W3C//DTD SVG 20010904//EN"
 "http://www.w3.org/TR/2001/REC-SVG-20010904/DTD/svg10.dtd">
<svg version="1.0" xmlns="http://www.w3.org/2000/svg"
 width="300.000000pt" height="300.000000pt" viewBox="0 0 300.000000 300.000000"
 preserveAspectRatio="xMidYMid meet">
<metadata>
Created by potrace 1.10, written by Peter Selinger 2001-2011
</metadata>
<g transform="translate(0.000000,300.000000) scale(0.100000,-0.100000)"
fill="#ffffff" stroke="none">
<path d="M1355 2990 c-184 -14 -368 -68 -552 -165 -402 -209 -681 -583 -773
-1035 -31 -150 -31 -429 0 -580 57 -281 192 -543 380 -739 54 -57 68 -77 59
-87 -17 -21 -1 -54 27 -54 13 0 24 5 24 10 0 18 14 11 95 -50 160 -120 380
-216 595 -260 150 -31 430 -31 580 0 145 29 264 71 391 136 411 210 695 586
789 1044 31 151 31 430 1 580 -62 300 -202 560 -412 770 -318 317 -731 465
-1204 430z m437 -50 c187 -39 371 -117 533 -224 110 -73 309 -269 384 -379
110 -162 197 -372 237 -572 25 -125 25 -405 0 -530 -40 -200 -127 -410 -237
-572 -68 -100 -272 -303 -370 -370 -167 -114 -371 -199 -574 -239 -125 -25
-405 -25 -530 0 -238 47 -461 149 -659 300 -17 14 -5 29 172 233 104 120 198
227 208 238 41 45 123 144 187 226 l66 86 128 36 c133 37 273 66 453 92 58 8
120 17 138 20 l32 6 51 -105 c44 -90 51 -114 52 -168 1 -52 -3 -72 -27 -116
-110 -198 -346 -288 -669 -253 -131 14 -218 40 -316 92 -93 50 -119 46 -30 -4
148 -83 286 -111 514 -105 141 4 169 8 234 31 99 36 150 67 220 135 76 74 101
124 101 200 0 68 -15 118 -66 215 -20 38 -33 71 -30 74 3 3 138 8 301 11 190
3 295 9 295 15 0 11 -520 2 -578 -9 -28 -6 -33 -2 -67 52 -21 32 -76 98 -123
147 l-85 89 34 26 c19 14 74 64 122 111 92 89 107 122 59 129 -18 3 -45 -20
-128 -107 -58 -61 -110 -111 -114 -111 -8 0 -41 50 -68 103 -14 26 -12 33 25
115 22 48 51 120 64 160 l24 74 -24 19 c-52 42 -119 10 -140 -67 -15 -54 -14
-179 2 -240 15 -57 15 -56 -99 -239 -140 -223 -160 -249 -225 -291 -35 -23
-77 -50 -93 -60 -15 -10 -54 -32 -85 -49 -39 -21 -56 -36 -56 -50 0 -27 41
-31 91 -10 20 8 39 13 42 10 8 -7 -168 -195 -428 -458 l-235 -238 -80 83
c-185 194 -315 450 -371 733 -25 126 -26 406 -1 530 41 201 128 410 238 572
69 100 272 303 372 372 196 133 410 213 682 255 73 11 352 -4 447 -24z m-66
-853 c5 -13 -47 -171 -84 -257 l-20 -45 -7 38 c-4 22 -5 83 -3 136 5 106 18
148 29 96 l7 -30 1 31 c0 17 4 34 8 37 12 12 63 7 69 -6z m-106 -370 c0 -8 14
-33 30 -55 17 -23 30 -45 29 -49 0 -5 -28 -30 -61 -58 -34 -27 -77 -63 -96
-80 -86 -73 -118 -100 -137 -115 -19 -15 -19 -14 -2 10 100 146 170 255 193
303 27 55 44 72 44 44z m301 -374 l29 -42 -47 -6 c-156 -19 -462 -70 -547 -91
-54 -13 -103 -24 -108 -24 -16 0 65 97 97 116 35 21 311 228 340 255 19 19 21
18 113 -73 52 -51 107 -112 123 -135z m-669 -132 c-18 -26 -41 -43 -72 -54
-85 -29 -96 -29 -49 0 26 15 68 43 95 61 26 17 49 32 51 32 1 0 -10 -17 -25
-39z"/>
<path d="M2227 2704 c-11 -11 -8 -52 4 -60 6 -3 18 1 27 10 13 12 14 21 6 33
-12 20 -27 26 -37 17z"/>
<path d="M2050 2626 c-168 -99 -297 -250 -373 -435 -24 -60 -12 -66 14 -6 83
188 271 378 421 425 51 16 68 28 68 46 0 27 -56 14 -130 -30z"/>
</g>
</svg>
